{"title":"A.Christmas.Kiss.2011.DVDRip.XviD-OCW","uid":6891410,"size":1199367778,"categoryP":"video","categoryS":"movies","magnet":"?xt=urn:btih:71b37da2ca51030191697cb451c33e66a70af5fd&amp;dn=A.Christmas.Kiss.2011.DVDRip.XviD-OCW&amp;tr=udp%3A%2F%2Ftracker.openbittorrent.com%3A80&amp;tr=udp%3A%2F%2Fopen.demonii.com%3A1337&amp;tr=udp%3A%2F%2Ftracker.coppersurfer.tk%3A6969&amp;tr=udp%3A%2F%2Fexodus.desync.com%3A6969","seeders":0,"leechers":1,"uploader":"HeroMaster","files":-1,"time":1324032035,"description":"A Christmas Kiss 2011 DVDRip XviD-OCW\n &lt;a href=&quot;\nhttp://www.imdb.com/title/tt1790621/&quot; rel=&quot;nofollow&quot; target=&quot;_NEW&quot;&gt;\nhttp://www.imdb.com/title/tt1790621/&lt;/a&gt;\n\nGeneral\nComplete name                    : A.Christmas.Kiss.2011.DVDRip.XviD-OCW.avi\nFormat                         : AVI\nFormat/Info                      : Audio Video Interleave\nFile size                        : 1.10 GiB\nDuration                       : 1h 25mn\nOverall bit rate               : 1 846 Kbps\nWriting library                  : MPlayer\n\nVideo\nID                             : 0\nFormat                         : MPEG-4 Visual\nFormat profile                 : Advanced Simple@L5\nFormat settings, BVOP            : 2\nFormat settings, QPel            : No\nFormat settings, GMC           : No warppoints\nFormat settings, Matrix          : Default (H.263)\nCodec ID                       : XVID\nCodec ID/Hint                    : XviD\nDuration                       : 1h 25mn\nBit rate                       : 1 585 Kbps\nWidth                            : 720 pixels\nHeight                         : 400 pixels\nDisplay aspect ratio           : 16:9\nFrame rate                     : 25.000 fps\nColor space                      : YUV\nChroma subsampling             : 4:2:0\nBit depth                        : 8 bits\nScan type                        : Progressive\nCompression mode               : Lossy\nBits/(Pixel*Frame)             : 0.220\nStream size                      : 968 MiB (86%)\nWriting library                  : XviD 63\n\nAudio\nID                             : 1\nFormat                         : MPEG Audio\nFormat version                 : Version 1\nFormat profile                 : Layer 3\nMode                           : Joint stereo\nCodec ID                       : 55\nCodec ID/Hint                    : MP3\nDuration                       : 1h 25mn\nBit rate mode                    : Constant\nBit rate                       : 256 Kbps\nChannel(s)                     : 2 channels\nSampling rate                    : 44.1 KHz\nCompression mode               : Lossy\nDelay relative to video          : 40ms\nStream size                      : 156 MiB (14%)\nAlignment                        : Split accross interleaves\nInterleave, duration           : 500 ms (12.50 video frames)\nInterleave, preload duration   : 500 ms\nWriting library                  : LAME3.98.4\n\nCast\n\nElisabeth RÃƒÂ¯Ã‚Â¿Ã‚Â½hm ... Priscilla Hall\nLaura Breckenridge ... Wendy Walton\nBrendan Fehr ... Adam Hughes\nJerrika Hinton ... Tressa\nLaura Spencer ... Caroline\nMark Joy ... Charlie\nMark DeAngelis ... Carriage Driver\n\n\nPoster:\n\n &lt;a href=&quot;\nhttp://i.imgur.com/5yoCr.jpg&quot; rel=&quot;nofollow&quot; target=&quot;_NEW&quot;&gt;\nhttp://i.imgur.com/5yoCr.jpg&lt;/a&gt;\n\n\nScreenshots:\n\n &lt;a href=&quot;\nhttp://i.imgur.com/DXGMg.jpg&quot; rel=&quot;nofollow&quot; target=&quot;_NEW&quot;&gt;\nhttp://i.imgur.com/DXGMg.jpg&lt;/a&gt;\n\n\nENJOY!","torrent":{"xt":"urn:btih:71b37da2ca51030191697cb451c33e66a70af5fd","amp;dn":"A.Christmas.Kiss.2011.DVDRip.XviD-OCW","amp;tr":["udp%3A%2F%2Ftracker.openbittorrent.com%3A80","udp%3A%2F%2Fopen.demonii.com%3A1337","udp%3A%2F%2Ftracker.coppersurfer.tk%3A6969","udp%3A%2F%2Fexodus.desync.com%3A6969"],"infoHash":"71b37da2ca51030191697cb451c33e66a70af5fd","infoHashBuffer":{"type":"Buffer","data":[113,179,125,162,202,81,3,1,145,105,124,180,81,195,62,102,167,10,245,253]},"announce":[],"urlList":[]}}